<?xml version="1.0" standalone="no"?>
<!DOCTYPE svg PUBLIC "-//W3C//DTD SVG 20010904//EN"
 "http://www.w3.org/TR/2001/REC-SVG-20010904/DTD/svg10.dtd">
<svg version="1.0" xmlns="http://www.w3.org/2000/svg"
 width="453.000000pt" height="142.000000pt" viewBox="0 0 453.000000 142.000000"
 preserveAspectRatio="xMidYMid meet">

<g transform="translate(0.000000,142.000000) scale(0.100000,-0.100000)"
fill="#000000" stroke="none">
<path d="M4129 1355 c-41 -22 -93 -141 -152 -350 -98 -342 -137 -517 -144
-640 -5 -100 8 -141 59 -178 53 -39 89 -5 112 105 10 46 105 78 229 78 l62 0
17 -58 c30 -101 69 -132 122 -97 39 26 51 70 49 181 -2 161 -38 376 -98 583
-66 230 -127 350 -190 377 -40 17 -34 17 -66 -1z m91 -495 c15 -41 30 -92 33
-112 l6 -38 -68 0 c-38 0 -82 -3 -99 -6 l-31 -6 13 48 c13 46 50 153 76 219
l12 30 15 -30 c9 -16 28 -64 43 -105z"/>
<path d="M1520 1340 c-41 -10 -58 -55 -69 -180 -15 -175 -34 -723 -28 -805 12
-156 94 -257 195 -239 104 18 178 45 203 73 62 67 44 253 -27 292 -22 11 -34
11 -148 -7 l-39 -7 9 284 c14 437 13 497 -11 543 -22 43 -46 56 -85 46z"/>
<path d="M345 1321 c-120 -30 -217 -165 -270 -377 -54 -212 -17 -539 79 -697
36 -59 46 -70 91 -100 80 -54 173 -29 291 77 71 63 96 120 96 216 -1 42 -5 87
-11 102 -11 29 -56 68 -79 68 -8 0 -48 -31 -88 -70 -40 -38 -84 -72 -98 -76
-57 -14 -97 47 -118 180 -24 157 36 315 128 332 44 8 70 -9 99 -66 28 -55 53
-73 89 -64 89 22 101 166 26 329 -55 118 -139 170 -235 146z"/>
<path d="M760 1288 c-62 -103 -106 -621 -65 -778 36 -139 133 -279 228 -327
98 -49 191 -25 271 69 107 125 144 324 131 706 -4 123 -12 225 -21 260 -33
131 -119 119 -163 -23 -19 -61 -29 -119 -71 -432 -25 -180 -41 -241 -74 -272
-20 -19 -28 -21 -45 -12 -78 42 -101 268 -57 571 24 164 -10 270 -85 270 -22
0 -34 -8 -49 -32z"/>
<path d="M1968 1300 c-125 -16 -192 -89 -191 -210 0 -121 46 -184 119 -166
l27 7 -7 -83 c-3 -46 -8 -200 -11 -343 -5 -233 -4 -265 12 -310 32 -90 106
-96 143 -13 27 64 38 182 46 491 6 266 7 277 25 272 34 -11 88 14 106 48 26
48 24 181 -2 227 -37 65 -142 96 -267 80z"/>
<path d="M2353 1300 c-38 -15 -53 -60 -53 -157 1 -97 10 -147 63 -333 19 -69
54 -204 77 -300 57 -239 77 -300 108 -333 36 -38 83 -37 112 3 51 72 105 215
234 620 74 234 76 321 8 393 -45 47 -90 34 -121 -38 -21 -49 -118 -335 -137
-402 -9 -35 -20 -63 -23 -63 -4 0 -15 35 -25 78 -34 146 -97 377 -118 432 -20
55 -67 111 -91 109 -6 0 -22 -4 -34 -9z"/>
<path d="M3048 1299 c-46 -26 -68 -233 -68 -639 0 -268 11 -406 38 -460 14
-29 23 -36 53 -38 45 -4 73 26 88 96 14 66 16 949 3 984 -23 56 -73 82 -114
57z"/>
<path d="M3365 1237 c-56 -56 -68 -113 -72 -352 -3 -116 0 -267 5 -337 9 -124
9 -130 -15 -190 -21 -51 -25 -73 -21 -129 6 -74 31 -127 64 -135 32 -8 138 22
207 59 119 63 206 165 242 284 26 86 38 244 26 337 -29 213 -150 432 -266 480
-21 9 -60 16 -87 16 -43 0 -55 -5 -83 -33z m159 -322 c80 -54 119 -132 119
-235 0 -61 -16 -101 -59 -144 -32 -32 -112 -81 -120 -73 -18 17 -34 454 -17
470 13 13 41 7 77 -18z"/>
</g>
</svg>
